<svg xmlns="http://www.w3.org/2000/svg" viewBox="0 0 511.97 384.05"><title>Asset 1backward2</title><g id="ba5ccf16-65b5-45d9-9793-c21d96c8004a" data-name="Layer 2"><g id="b4b694a7-224d-4b0e-9b69-85d3eee73307" data-name="Layer 1"><g id="a81012fc-d657-4b66-9a18-17b9a0a66568" data-name="aba48ed8-b01d-4d90-a680-220d4ce613cc"><g id="bceadd0c-dba0-4e86-b944-aacd3b7c7fca" data-name="ff23aa1f-ed24-4b01-96df-a7c6e29f11d5"><path d="M500.5,167.41l-192-160C287.9-9.69,256,4.61,256,32V352c0,27.4,31.9,41.8,52.5,24.6l192-160a32.11,32.11,0,0,0,0-49.2Zm-256,0-192-160C31.9-9.69,0,4.61,0,32V352c0,27.4,31.9,41.8,52.5,24.6l192-160a32.11,32.11,0,0,0,0-49.2Z" style="fill:#0000fe"/></g><g id="b87e60e0-325a-4b8d-82f2-d1559663592f" data-name="ff23aa1f-ed24-4b01-96df-a7c6e29f11d5"><path d="M500.5,167.41l-192-160C287.9-9.69,256,4.61,256,32V352c0,27.4,31.9,41.8,52.5,24.6l192-160a32.11,32.11,0,0,0,0-49.2Zm-256,0-192-160C31.9-9.69,0,4.61,0,32V352c0,27.4,31.9,41.8,52.5,24.6l192-160a32.11,32.11,0,0,0,0-49.2Z" style="fill:#6d6d6d"/></g></g></g></g></svg>