<svg xmlns="http://www.w3.org/2000/svg" viewBox="0 0 576 512.02"><title>Asset 1cart</title><g id="a9a612a4-67d0-4fd3-99d4-114992d607fa" data-name="Layer 2"><g id="b0df989c-d6e7-44c8-bcf8-ab6e223252df" data-name="Layer 1"><path d="M18.68,64.6A24,24,0,0,0,.6,93.32l47.27,208A24,24,0,0,0,71.27,320H364.42L416.78,64H24A23.84,23.84,0,0,0,18.68,64.6Z" style="fill:#6d6d6d;isolation:isolate"/><path d="M426,19.19A24,24,0,0,1,449.46,0H552a24,24,0,0,1,24,24V40a24,24,0,0,1-24,24H482.11L411.86,407.43A56,56,0,1,1,344.81,416H135.17a56,56,0,1,1-63.6-10.4l-5.52-24.28a25.08,25.08,0,0,1-.6-5.32,24,24,0,0,1,24-24H357.87Z" style="fill:#6d6d6d"/></g></g></svg>