<svg xmlns="http://www.w3.org/2000/svg" viewBox="0 0 496 496"><title>Asset 1delete</title><g id="e2efd4df-1685-4353-b000-43d817f0779b" data-name="Layer 2"><g id="ea4526ff-0b45-4892-b59f-6dbb7611ba5e" data-name="Layer 1"><g id="a60abcc1-3f66-43a2-b389-56194ab051e7" data-name="adc1c38e-f4cc-4c39-9575-ce1aee298d18"><g id="b7d49aa4-fb70-4894-a328-339010db49db" data-name="ee115833-abad-49bb-8158-4c0a0e4a69c7"><path d="M248,0C111,0,0,111,0,248S111,496,248,496,496,385,496,248,385,0,248,0Zm0,448C137.54,448,48,358.46,48,248S137.54,48,248,48s200,89.54,200,200S358.54,448,248.12,448ZM349.8,185.8,287.6,248l62.2,62.2a12,12,0,0,1,0,17l0,0-22.6,22.6a12,12,0,0,1-17,0l0,0L248,287.6l-62.2,62.2a12,12,0,0,1-17,0l0,0-22.6-22.6a12,12,0,0,1,0-17l0,0L208.4,248l-62.2-62.2a12,12,0,0,1,0-17l0,0,22.6-22.6a12,12,0,0,1,17,0l0,0L248,208.4l62.2-62.2a12,12,0,0,1,17,0l0,0,22.6,22.6a12,12,0,0,1,0,17l0,0Z" style="fill:#6d6d6d"/></g></g></g></g></svg>