<svg xmlns="http://www.w3.org/2000/svg" viewBox="0 0 512 448"><defs><style>.ed958739-1406-4d24-b4fe-d76f3e190b25{fill:#bebebe;}</style></defs><title>heart border</title><g id="a21ff49b-a49c-4363-9860-bd753b9f07fc" data-name="Layer 2"><g id="f28d9e9e-2cc9-40f1-a542-8ad0e8b61c01" data-name="Layer 1"><path class="ed958739-1406-4d24-b4fe-d76f3e190b25" d="M462.31,30.7c-54.5-46.4-136-38.7-186.6,13.5L256,64.6l-19.7-20.3c-40.8-42.2-123.1-67.6-186.6-13.6-62.8,53.6-66.1,149.8-9.9,207.8l193.5,199.8a31.47,31.47,0,0,0,22.6,9.7,31.07,31.07,0,0,0,22.6-9.7L472,238.5C528.41,180.5,525.11,84.3,462.31,30.7Zm-13.1,185.6L256.41,416.1,62.81,216.3c-38.4-39.6-46.4-115.1,7.7-161.2,54.8-46.8,119.2-12.9,142.8,11.5L256,110.7l42.7-44.1c23.2-24,88.2-58,142.8-11.5,54,46,46.1,121.5,7.7,161.2Z"/></g></g></svg>