<svg xmlns="http://www.w3.org/2000/svg" viewBox="0 0 640 448.01"><title>Asset 1-info</title><g id="f70835ef-682b-4ede-a961-e310e5b2896d" data-name="Layer 2"><g id="b10fa81a-d19a-4852-a41c-eb157fb1430f" data-name="Layer 1"><g id="ac4b363c-0555-4f94-9723-05f3bba34685" data-name="a0c3e757-682a-437b-9151-052d91bcb049"><g id="a59167b3-c3f8-495e-8afa-53eff34f5a48" data-name="eee47ed2-0a5b-4392-938b-c9f209874381"><path d="M425.74,224a48.45,48.45,0,0,1-41.4-23.4L320,94l-64.2,106.6a48.6,48.6,0,0,1-41.5,23.5,45.41,45.41,0,0,1-13.3-1.9L64,183V361a31.9,31.9,0,0,0,24.2,31l216.2,54.1a64.75,64.75,0,0,0,31,0L551.84,392A32.07,32.07,0,0,0,576,361V183l-137,39.1A45.77,45.77,0,0,1,425.74,224Zm212.6-112.2L586.84,9a16.36,16.36,0,0,0-16.7-8.9L320,32l91.7,152.1a16.42,16.42,0,0,0,18.5,7.3l197.9-56.5a16.47,16.47,0,0,0,10.2-23.1ZM53.24,9,1.74,111.87a16.28,16.28,0,0,0,10.1,23l197.9,56.5a16.42,16.42,0,0,0,18.5-7.3L320,32,69.84.17A16.36,16.36,0,0,0,53.24,9Z" style="fill:#6d6d6d"/></g></g></g></g></svg>