<svg xmlns="http://www.w3.org/2000/svg" viewBox="0 0 488 400"><title>Asset 1-lines</title><g id="b590d003-167b-4177-bda4-a49d2e2eb33a" data-name="Layer 2"><g id="bbc820dc-a9be-4ca1-aa00-12b48e37717d" data-name="Layer 1"><g id="f78ffccf-2503-4cf3-a473-3c5e24da2b63" data-name="eb758ece-d88f-437a-ba91-2b510598995c"><g id="a6eef0f2-ff00-4c0e-8cc0-f9c10bd3a6b4" data-name="a1e08ed6-5b2d-46ab-9243-327c04220221"><path d="M408,16V64a16,16,0,0,0,16,16h48a16,16,0,0,0,16-16V16A16,16,0,0,0,472,0H424A16,16,0,0,0,408,16Zm0,160v48a16,16,0,0,0,16,16h48a16,16,0,0,0,16-16V176a16,16,0,0,0-16-16H424A16,16,0,0,0,408,176Zm0,160v48a16,16,0,0,0,16,16h48a16,16,0,0,0,16-16V336a16,16,0,0,0-16-16H424A16,16,0,0,0,408,336ZM0,352v16a8,8,0,0,0,8,8H344a8,8,0,0,0,8-8V352a8,8,0,0,0-8-8H8A8,8,0,0,0,0,352ZM0,32V48a8,8,0,0,0,8,8H344a8,8,0,0,0,8-8V32a8,8,0,0,0-8-8H8A8,8,0,0,0,0,32ZM0,192v16a8,8,0,0,0,8,8H344a8,8,0,0,0,8-8V192a8,8,0,0,0-8-8H8A8,8,0,0,0,0,192Z" style="fill:#6d6d6d"/></g></g></g></g></svg>