<svg xmlns="http://www.w3.org/2000/svg" viewBox="0 0 512.03 512.03"><title>Asset 1-search</title><g id="b3d47bd4-a1ee-4819-bafe-1156fd77785f" data-name="Layer 2"><g id="a35204ff-a8b9-4ce1-971c-d0b63d64c774" data-name="Layer 1"><g id="bbf26d69-520b-4d9a-b471-703f0e32d4b5" data-name="bd4e99fc-df40-4d8f-a4e0-783c5123387d"><g id="ae2c4c46-12ea-4b1f-918d-176ab841131a" data-name="b774107c-c907-4862-b778-3294effff8a9"><path d="M508.5,468.9,387.1,347.5a11.88,11.88,0,0,0-8.5-3.5H365.4A207.4,207.4,0,0,0,416,208C416,93.1,322.9,0,208,0S0,93.1,0,208,93.1,416,208,416a207.4,207.4,0,0,0,136-50.6v13.2a12.28,12.28,0,0,0,3.5,8.5L468.9,508.5a12,12,0,0,0,17,0l0,0,22.6-22.6a12,12,0,0,0,0-17ZM208,368A160,160,0,1,1,368,208,160,160,0,0,1,208,368Z" style="fill:#6d6d6d"/></g></g></g></g></svg>