<svg xmlns="http://www.w3.org/2000/svg" viewBox="0 0 480.73 495.99"><title>Asset 1-settings</title><g id="be9bff14-8586-484c-be1b-131717cf7a50" data-name="Layer 2"><g id="e82cabd7-d140-4f68-931d-d806cc3daf23" data-name="Layer 1"><g id="a65084a4-2010-420e-9572-84c4c9f6152f" data-name="efd23144-78d5-4306-99f4-d95ebe1bc4d1"><g id="e3aea0bc-a7e6-4d92-b5c1-5ece139b3604" data-name="a4e598bb-262b-43ee-ae2a-260ac3e3ae35"><path d="M436.89,229l31.84-18.38a24.08,24.08,0,0,0,11.18-27.06A247.66,247.66,0,0,0,415.85,72.77a24,24,0,0,0-29-3.81L355.08,87.31a197.57,197.57,0,0,0-32.9-19V31.54a24,24,0,0,0-17.84-23.2,249.47,249.47,0,0,0-127.93,0,24,24,0,0,0-17.85,23.21V68.29a195.68,195.68,0,0,0-32.9,19L93.88,69a24,24,0,0,0-29,3.81A247.41,247.41,0,0,0,.88,183.6a24,24,0,0,0,11.13,27L43.86,229a197.73,197.73,0,0,0,0,38L12,285.38A24,24,0,0,0,.84,312.44,247.6,247.6,0,0,0,64.89,423.23a24,24,0,0,0,29,3.81l31.78-18.35a197.46,197.46,0,0,0,32.9,19v36.76a24,24,0,0,0,17.84,23.2,249.47,249.47,0,0,0,127.93,0,24,24,0,0,0,17.85-23.2V427.71a197.86,197.86,0,0,0,32.9-19L386.86,427a24,24,0,0,0,29-3.81,247.75,247.75,0,0,0,64.05-110.75,24.07,24.07,0,0,0-11.18-27.06L436.89,267A197.73,197.73,0,0,0,436.89,229Zm-52.68,63L428,317.31a200.68,200.68,0,0,1-33.85,58.53l-43.83-25.31c-32,27.39-36.66,30.07-76.17,44v50.6a200.93,200.93,0,0,1-67.62,0v-50.6c-39.5-13.95-44.19-16.65-76.17-44L86.56,375.84a200,200,0,0,1-33.84-58.53L96.53,292c-7.63-41.3-7.63-46.72,0-88L52.72,178.69a200.08,200.08,0,0,1,33.84-58.53l43.83,25.31c32-27.39,36.66-30.08,76.17-44V50.85a200.93,200.93,0,0,1,67.62,0v50.59c39.5,14,44.2,16.65,76.17,44l43.83-25.31A200.42,200.42,0,0,1,428,178.69L384.21,204C391.84,245.3,391.84,250.72,384.21,292ZM240.37,152a96,96,0,1,0,96,96h0A96.11,96.11,0,0,0,240.37,152Zm0,144a48,48,0,1,1,48-48h0A48.06,48.06,0,0,1,240.37,296Z" style="fill:#6d6d6d"/></g></g></g></g></svg>