<svg xmlns="http://www.w3.org/2000/svg" viewBox="0 0 496.02 448.02"><title>Asset 1-sort-up</title><g id="ee9e8d11-9129-4d22-b915-034fdd4b5d59" data-name="Layer 2"><g id="ed29e6c3-c4a3-40b2-98cf-70becb2948a4" data-name="Layer 1"><g id="b74f7fde-a39c-46e2-b50b-84907d9dcac1" data-name="b9cb5583-f203-4042-af9d-c18c512a2caf"><g id="a3699d58-0163-4e0c-a670-aa95f17c480b" data-name="ac16999b-2985-4e24-aa52-7f4c083b37a2"><path d="M224,296H416a16,16,0,0,0,16-16V264a16,16,0,0,0-16-16H224a16,16,0,0,0-16,16v16A16,16,0,0,0,224,296Zm0-192h64a16,16,0,0,0,16-16V72a16,16,0,0,0-16-16H224a16,16,0,0,0-16,16V88A16,16,0,0,0,224,104Zm0,96H352a16,16,0,0,0,16-16V168a16,16,0,0,0-16-16H224a16,16,0,0,0-16,16v16A16,16,0,0,0,224,200ZM480,344H224a16,16,0,0,0-16,16v16a16,16,0,0,0,16,16H480a16,16,0,0,0,16-16V360A16,16,0,0,0,480,344ZM12,96H56V432a16,16,0,0,0,16,16H88a16,16,0,0,0,16-16V96h44a12,12,0,0,0,8.73-20.24l-68-72a12,12,0,0,0-17-.52l0,0c-.16.15-.32.31-.47.48l-68,72A12,12,0,0,0,12,96Z" style="fill:#6d6d6d"/></g></g></g></g></svg>