<svg xmlns="http://www.w3.org/2000/svg" viewBox="0 0 496.01 448.04"><title>Asset 1-sort-down</title><g id="b598bfcb-0a64-4727-8f3b-b224c42f52bc" data-name="Layer 2"><g id="a478986d-e0f0-46c6-bee6-1acbe9bbf25e" data-name="Layer 1"><g id="e932588d-25ec-4d63-b103-316d752d4d2c" data-name="a02b0cdd-9858-4714-88f8-66cd283664a3"><g id="ff3f624e-6895-4a0b-99b1-ba9efe30ce90" data-name="aebd706d-a7e0-495a-addc-3b3973e2e96f"><path d="M304,88V72a16,16,0,0,0-16-16H224a16,16,0,0,0-16,16V88a16,16,0,0,0,16,16h64A16,16,0,0,0,304,88ZM148,352H104V16A16,16,0,0,0,88,0H72A16,16,0,0,0,56,16V352H12a12,12,0,0,0-8.73,20.24l68,72a12,12,0,0,0,17,.56l0,0h0l.48-.48,68-72A12,12,0,0,0,148,352Zm284-72V264a16,16,0,0,0-16-16H224a16,16,0,0,0-16,16v16a16,16,0,0,0,16,16H416A16,16,0,0,0,432,280Zm64,96V360a16,16,0,0,0-16-16H224a16,16,0,0,0-16,16v16a16,16,0,0,0,16,16H480A16,16,0,0,0,496,376ZM368,184V168a16,16,0,0,0-16-16H224a16,16,0,0,0-16,16v16a16,16,0,0,0,16,16H352A16,16,0,0,0,368,184Z" style="fill:#6d6d6d"/></g></g></g></g></svg>