<svg xmlns="http://www.w3.org/2000/svg" viewBox="0 0 512 448"><title>Asset 1-table</title><g id="bd178b5d-1c74-451c-a949-d85c9d9c768c" data-name="Layer 2"><g id="af497e7d-6b3b-410a-a33f-b95ad0cfd490" data-name="Layer 1"><g id="b2fd1174-0f91-4646-b05b-38b9d106029e" data-name="a74c1e24-090c-4427-be73-09a9fb6ccd08"><g id="bed4c985-b933-4e9f-90cc-e7cf80e40ca2" data-name="b4c7cf77-fa64-450a-ab34-452dfe166618"><path d="M464,0H48A48,48,0,0,0,0,48V400a48,48,0,0,0,48,48H464a48,48,0,0,0,48-48V48A48,48,0,0,0,464,0ZM232,400H54a6,6,0,0,1-6-6V264H232Zm0-184H48V80H232ZM458,400H280V264H464V394A6,6,0,0,1,458,400Zm6-184H280V80H464Z" style="fill:#6d6d6d"/></g></g></g></g></svg>